<svg width="141" height="34" viewBox="0 0 141 34" fill="none" xmlns="http://www.w3.org/2000/svg">
<path d="M2.02439 22.9092C6.35746 21.8536 10.4648 19.6336 13.9114 16.4844C16.6253 14.0047 18.9297 10.9549 20.6716 7.5377M2.02439 22.9092C1.39606 21.6852 1.04185 20.2832 1.00363 18.8689C0.977286 17.8939 1.09854 16.9197 1.28705 15.9677C1.45364 15.1264 1.67293 14.2985 1.94274 13.4921M2.02439 22.9092C1.96597 24.1326 2.20049 25.3723 2.69644 26.4618C3.49664 28.2198 4.91998 29.5101 6.40726 30.5513M20.6716 7.5377C20.7618 7.39701 20.8851 7.28368 21.0253 7.21255C21.1656 7.14142 21.3224 7.11266 21.4754 7.13006C21.6271 7.14731 21.7735 7.20925 21.9036 7.29911C22.0337 7.38897 22.148 7.50625 22.2477 7.6366C22.4471 7.89729 22.5878 8.20715 22.737 8.50768C23.143 9.32551 23.6231 10.0934 24.0444 10.9013C24.4656 11.7091 24.8314 12.5696 24.9798 13.4921M20.6716 7.5377C20.2423 6.04687 19.6866 4.60255 19.0146 3.23097C18.846 2.88693 18.6687 2.54521 18.4408 2.24798C18.2129 1.95075 17.9301 1.69783 17.6006 1.57108C17.3595 1.47831 17.0974 1.45577 16.8466 1.5062C16.5959 1.55664 16.3568 1.67994 16.1588 1.86102M6.40726 30.5513C9.93174 27.9165 13.6059 25.5372 17.3996 23.433C19.2746 22.393 21.2129 21.3946 22.7437 19.789C23.5091 18.9862 24.163 18.0335 24.5794 16.9514C24.9959 15.8693 25.1667 14.6531 24.9798 13.4921M6.40726 30.5513C7.28927 31.1688 8.21101 31.7199 9.18244 32.1319C11.9113 33.2893 15.0113 33.2894 17.7402 32.1319C18.7116 31.7199 19.6333 31.1687 20.5154 30.5513M24.9798 13.4921C25.2496 14.2985 25.4689 15.1264 25.6355 15.9677C25.8241 16.9197 25.9456 17.8939 25.919 18.869C25.8804 20.2837 25.5246 21.6861 24.8941 22.9092M24.9798 13.4921C22.2933 13.1431 19.6798 12.0952 17.3996 10.4527C14.5239 8.38118 12.191 5.36059 10.7638 1.86102M16.1588 1.86102C15.7351 1.5666 15.2733 1.34206 14.7928 1.19673C13.9255 0.934424 12.9971 0.934424 12.1298 1.19673C11.6493 1.34206 11.1876 1.5666 10.7638 1.86102M16.1588 1.86102C14.7317 5.36059 12.3987 8.38118 9.52303 10.4527C7.24282 12.0952 4.62929 13.1431 1.94274 13.4921M10.7638 1.86102C10.5659 1.67993 10.3268 1.55661 10.076 1.50617C9.8252 1.45574 9.5632 1.4783 9.32207 1.57108C8.9926 1.69785 8.70975 1.95079 8.48188 2.24803C8.25401 2.54527 8.07672 2.88698 7.90808 3.23097C7.2355 4.60289 6.67843 6.04709 6.24687 7.5377M6.24687 7.5377C6.1571 7.39762 6.03446 7.28468 5.89492 7.21357C5.75539 7.14246 5.59929 7.11337 5.44694 7.13006C5.29488 7.1467 5.14802 7.2083 5.01749 7.29797C4.88697 7.38765 4.77233 7.50494 4.67228 7.63537C4.47217 7.89624 4.33099 8.20661 4.18147 8.50765C3.77546 9.32506 3.29595 10.093 2.87552 10.9011C2.4551 11.7091 2.09041 12.5698 1.94274 13.4921M6.24687 7.5377C7.99054 10.9549 10.2963 14.0046 13.0113 16.4844C16.4573 19.632 20.5628 21.8518 24.8941 22.9092M1.94274 13.4921C1.75686 14.6531 1.92823 15.8689 2.34488 16.9507C2.76154 18.0326 3.41538 18.985 4.1806 19.7878C5.71102 21.3934 7.64854 22.3926 9.52303 23.433C13.3162 25.5384 16.9903 27.9176 20.5154 30.5513M20.5154 30.5513C22.0028 29.5103 23.427 28.2204 24.2262 26.4618C24.7214 25.3722 24.9545 24.1322 24.8941 22.9092" stroke="#FB773E" stroke-width="1.152"/>
<path d="M126.105 27.5932V6.92001H133.333C134.773 6.92001 135.961 7.16901 136.896 7.66699C137.831 8.15825 138.528 8.82111 138.985 9.65557C139.443 10.4833 139.672 11.4019 139.672 12.4113C139.672 13.2996 139.514 14.0331 139.197 14.6119C138.888 15.1906 138.477 15.6482 137.966 15.9847C137.461 16.3212 136.913 16.5702 136.321 16.7317V16.9336C136.953 16.974 137.589 17.196 138.228 17.5998C138.868 18.0036 139.403 18.5823 139.833 19.336C140.264 20.0897 140.479 21.0117 140.479 22.1019C140.479 23.1382 140.244 24.0703 139.773 24.898C139.302 25.7257 138.558 26.3819 137.542 26.8664C136.526 27.3509 135.203 27.5932 133.575 27.5932H126.105ZM128.609 25.3724H133.575C135.21 25.3724 136.371 25.0561 137.057 24.4236C137.751 23.7843 138.097 23.0104 138.097 22.1019C138.097 21.402 137.919 20.756 137.562 20.1638C137.205 19.5648 136.697 19.087 136.038 18.7304C135.378 18.367 134.598 18.1853 133.696 18.1853H128.609V25.3724ZM128.609 16.0049H133.252C134.006 16.0049 134.685 15.8569 135.291 15.5608C135.903 15.2647 136.388 14.8474 136.745 14.3091C137.108 13.7707 137.29 13.1381 137.29 12.4113C137.29 11.5028 136.973 10.7323 136.341 10.0997C135.708 9.46042 134.705 9.14076 133.333 9.14076H128.609V16.0049Z" fill="#0D222D"/>
<path d="M113.949 27.5932H107.569V6.92001H114.232C116.237 6.92001 117.953 7.33388 119.38 8.16162C120.806 8.98262 121.9 10.1637 122.66 11.7047C123.421 13.2391 123.801 15.0762 123.801 17.2162C123.801 19.3697 123.417 21.2237 122.65 22.7782C121.883 24.326 120.766 25.5171 119.299 26.3516C117.832 27.1793 116.049 27.5932 113.949 27.5932ZM110.073 25.3724H113.787C115.497 25.3724 116.913 25.0427 118.037 24.3832C119.161 23.7237 119.999 22.7849 120.551 21.5669C121.102 20.3488 121.378 18.8986 121.378 17.2162C121.378 15.5473 121.106 14.1105 120.561 12.9059C120.016 11.6946 119.201 10.7659 118.118 10.1199C117.034 9.46715 115.685 9.14076 114.07 9.14076H110.073V25.3724Z" fill="#0D222D"/>
<path d="M97.5129 27.597V12.0922H99.8144V14.434H99.976C100.259 13.6669 100.77 13.0444 101.51 12.5666C102.251 12.0888 103.085 11.8499 104.014 11.8499C104.189 11.8499 104.407 11.8533 104.67 11.86C104.932 11.8667 105.131 11.8768 105.265 11.8903V14.3129C105.185 14.2927 105 14.2624 104.71 14.2221C104.428 14.175 104.128 14.1514 103.812 14.1514C103.058 14.1514 102.385 14.3095 101.793 14.6258C101.207 14.9354 100.743 15.3661 100.4 15.9179C100.063 16.463 99.8952 17.0855 99.8952 17.7854V27.597H97.5129Z" fill="#0D222D"/>
<path d="M87.5107 27.9182C86.5282 27.9182 85.6366 27.7331 84.8357 27.363C84.0349 26.9862 83.399 26.4444 82.9279 25.7378C82.4568 25.0245 82.2213 24.1631 82.2213 23.1537C82.2213 22.2654 82.3963 21.5453 82.7462 20.9935C83.0962 20.435 83.5639 19.9975 84.1493 19.6812C84.7348 19.365 85.3808 19.1294 86.0874 18.9746C86.8008 18.8131 87.5175 18.6853 88.2375 18.5911C89.1797 18.4699 89.9435 18.3791 90.5289 18.3185C91.1211 18.2512 91.5518 18.1402 91.821 17.9854C92.0969 17.8306 92.2349 17.5614 92.2349 17.1779V17.0971C92.2349 16.1011 91.9623 15.3272 91.4172 14.7754C90.8789 14.2236 90.0612 13.9477 88.9643 13.9477C87.827 13.9477 86.9354 14.1967 86.2893 14.6947C85.6433 15.1926 85.189 15.7243 84.9266 16.2896L82.6655 15.482C83.0692 14.5399 83.6076 13.8064 84.2806 13.2814C84.9602 12.7498 85.7005 12.3797 86.5013 12.1711C87.3088 11.9557 88.1029 11.8481 88.8836 11.8481C89.3815 11.8481 89.9536 11.9086 90.5996 12.0297C91.2524 12.1442 91.8816 12.3831 92.4872 12.7464C93.0996 13.1098 93.6077 13.6583 94.0115 14.3918C94.4152 15.1253 94.6171 16.1079 94.6171 17.3394V27.5548H92.2349V25.4552H92.1137C91.9522 25.7917 91.6831 26.1517 91.3062 26.5353C90.9293 26.9189 90.428 27.2453 89.8021 27.5144C89.1763 27.7836 88.4125 27.9182 87.5107 27.9182ZM87.8741 25.7782C88.8163 25.7782 89.6104 25.5931 90.2564 25.223C90.9092 24.8529 91.4004 24.3751 91.7302 23.7896C92.0666 23.2042 92.2349 22.5884 92.2349 21.9424V19.762C92.1339 19.8831 91.9119 19.9942 91.5687 20.0951C91.2322 20.1893 90.8419 20.2734 90.3977 20.3475C89.9603 20.4148 89.533 20.4753 89.1157 20.5292C88.7052 20.5763 88.3721 20.6167 88.1164 20.6503C87.4973 20.7311 86.9185 20.8623 86.3802 21.044C85.8485 21.2189 85.4178 21.4848 85.0881 21.8414C84.7651 22.1914 84.6036 22.6692 84.6036 23.2748C84.6036 24.1026 84.9098 24.7284 85.5222 25.1524C86.1413 25.5696 86.9253 25.7782 87.8741 25.7782Z" fill="#0D222D"/>
<path d="M72.8107 27.9162C71.5187 27.9162 70.378 27.5898 69.3888 26.937C68.3995 26.2776 67.6256 25.3489 67.0671 24.151C66.5085 22.9464 66.2292 21.5231 66.2292 19.8811C66.2292 18.2526 66.5085 16.8394 67.0671 15.6415C67.6256 14.4436 68.4029 13.5183 69.3989 12.8656C70.3948 12.2128 71.5456 11.8864 72.8511 11.8864C73.8606 11.8864 74.658 12.0547 75.2435 12.3911C75.8357 12.7209 76.2866 13.0977 76.5961 13.5217C76.9124 13.9389 77.158 14.2821 77.333 14.5513H77.5349V6.92001H79.9171V27.5932H77.6156V25.2109H77.333C77.158 25.4936 76.909 25.8502 76.586 26.2809C76.263 26.7049 75.802 27.0851 75.2031 27.4216C74.6042 27.7513 73.8067 27.9162 72.8107 27.9162ZM73.1338 25.7762C74.0894 25.7762 74.8969 25.5272 75.5564 25.0292C76.2159 24.5245 76.7172 23.828 77.0605 22.9397C77.4037 22.0447 77.5753 21.0117 77.5753 19.8407C77.5753 18.6833 77.407 17.6705 77.0705 16.8024C76.7341 15.9275 76.2361 15.2478 75.5766 14.7633C74.9171 14.272 74.1028 14.0264 73.1338 14.0264C72.1243 14.0264 71.2831 14.2855 70.6102 14.8037C69.944 15.3151 69.4426 16.0116 69.1061 16.8932C68.7764 17.768 68.6115 18.7506 68.6115 19.8407C68.6115 20.9444 68.7797 21.9471 69.1162 22.8488C69.4594 23.7439 69.9641 24.4572 70.6304 24.9888C71.3033 25.5137 72.1378 25.7762 73.1338 25.7762Z" fill="#0D222D"/>
<path d="M58.6575 27.8778C57.1635 27.8778 55.8748 27.5481 54.7913 26.8886C53.7146 26.2224 52.8835 25.2937 52.298 24.1026C51.7193 22.9047 51.4299 21.5117 51.4299 19.9235C51.4299 18.3353 51.7193 16.9356 52.298 15.7243C52.8835 14.5062 53.6978 13.5574 54.7409 12.8777C55.7907 12.1913 57.0155 11.8481 58.4152 11.8481C59.2227 11.8481 60.0202 11.9826 60.8076 12.2518C61.5949 12.521 62.3116 12.9584 62.9576 13.5641C63.6037 14.163 64.1185 14.9571 64.5021 15.9463C64.8857 16.9356 65.0774 18.1536 65.0774 19.6005V20.6099H53.1258V18.5507H62.6548C62.6548 17.6758 62.4798 16.8952 62.1299 16.2088C61.7867 15.5224 61.2954 14.9807 60.6561 14.5836C60.0236 14.1866 59.2766 13.988 58.4152 13.988C57.4663 13.988 56.6453 14.2236 55.9522 14.6947C55.2658 15.159 54.7375 15.7646 54.3674 16.5116C53.9973 17.2586 53.8122 18.0594 53.8122 18.9141V20.2869C53.8122 21.4578 54.0141 22.4505 54.4178 23.2647C54.8284 24.0723 55.397 24.688 56.1238 25.112C56.8506 25.5292 57.6951 25.7378 58.6575 25.7378C59.2833 25.7378 59.8486 25.6504 60.3533 25.4754C60.8648 25.2937 61.3055 25.0245 61.6757 24.6678C62.0458 24.3044 62.3318 23.8536 62.5337 23.3152L64.8352 23.9612C64.5929 24.7419 64.1858 25.4283 63.6138 26.0205C63.0418 26.6059 62.3352 27.0636 61.494 27.3933C60.6528 27.7163 59.7073 27.8778 58.6575 27.8778Z" fill="#0D222D"/>
<path d="M50.2779 13.343H47.7746C47.6265 12.6229 47.3674 11.9904 46.9973 11.4453C46.6339 10.9002 46.1897 10.4426 45.6648 10.0725C45.1467 9.6956 44.5713 9.41296 43.9387 9.22453C43.3061 9.0361 42.6466 8.94189 41.9602 8.94189C40.7085 8.94189 39.5746 9.25818 38.5584 9.89075C37.549 10.5233 36.7448 11.4554 36.1459 12.6869C35.5537 13.9184 35.2576 15.4292 35.2576 17.2192C35.2576 19.0093 35.5537 20.5201 36.1459 21.7516C36.7448 22.9831 37.549 23.9151 38.5584 24.5477C39.5746 25.1803 40.7085 25.4966 41.9602 25.4966C42.6466 25.4966 43.3061 25.4024 43.9387 25.2139C44.5713 25.0255 45.1467 24.7462 45.6648 24.3761C46.1897 23.9992 46.6339 23.5383 46.9973 22.9932C47.3674 22.4414 47.6265 21.8088 47.7746 21.0954H50.2779C50.0895 22.152 49.7463 23.0975 49.2483 23.932C48.7503 24.7664 48.1312 25.4764 47.391 26.0619C46.6507 26.6406 45.8196 27.0814 44.8977 27.3842C43.9825 27.687 43.0033 27.8385 41.9602 27.8385C40.1971 27.8385 38.6291 27.4078 37.2563 26.5464C35.8834 25.685 34.8034 24.4602 34.016 22.872C33.2286 21.2839 32.835 19.3996 32.835 17.2192C32.835 15.0389 33.2286 13.1546 34.016 11.5664C34.8034 9.97824 35.8834 8.75346 37.2563 7.89208C38.6291 7.0307 40.1971 6.60001 41.9602 6.60001C43.0033 6.60001 43.9825 6.75142 44.8977 7.05425C45.8196 7.35708 46.6507 7.80123 47.391 8.3867C48.1312 8.96544 48.7503 9.67204 49.2483 10.5065C49.7463 11.3342 50.0895 12.2797 50.2779 13.343Z" fill="#0D222D"/>
</svg>
