<?xml version="1.0" encoding="UTF-8" standalone="no"?>
<svg
   viewBox="0 0 500 425"
   version="1.1"
   id="svg10"
   sodipodi:docname="logo_white2.svg"
   width="500"
   height="425"
   inkscape:version="1.1.2 (0a00cf5339, 2022-02-04)"
   xmlns:inkscape="http://www.inkscape.org/namespaces/inkscape"
   xmlns:sodipodi="http://sodipodi.sourceforge.net/DTD/sodipodi-0.dtd"
   xmlns="http://www.w3.org/2000/svg"
   xmlns:svg="http://www.w3.org/2000/svg">
  <defs
     id="defs14" />
  <sodipodi:namedview
     id="namedview12"
     pagecolor="#ffffff"
     bordercolor="#666666"
     borderopacity="1.0"
     inkscape:pageshadow="2"
     inkscape:pageopacity="0.0"
     inkscape:pagecheckerboard="0"
     showgrid="false"
     width="291.47113px"
     height="430px"
     inkscape:zoom="0.95011872"
     inkscape:cx="249.96876"
     inkscape:cy="207.86876"
     inkscape:window-width="1440"
     inkscape:window-height="832"
     inkscape:window-x="0"
     inkscape:window-y="0"
     inkscape:window-maximized="1"
     inkscape:current-layer="svg10"
     fit-margin-top="0"
     fit-margin-left="0"
     fit-margin-right="0"
     fit-margin-bottom="0" />
  <path
     fill="none"
     stroke="#ffffff"
     stroke-linecap="round"
     stroke-linejoin="round"
     stroke-width="22.4293"
     d="m 43.832377,189.46711 c 236.551303,50.20884 231.892853,50.20884 231.892853,50.20884 l 209.29014,-89.72042 c -7.07405,0 -18.46162,25.88094 -18.28899,46.58576 0.17252,22.4298 12.59536,39.68373 18.28899,39.68373 L 275.72523,326.1178 c 0,0 -194.451814,-42.27208 -231.892853,-50.03622 -41.2369017,-9.66208 -41.2369017,-75.5719 0,-86.61447 z"
     id="path2" />
  <path
     fill="none"
     stroke="#ffffff"
     stroke-linecap="round"
     stroke-linejoin="round"
     stroke-width="22.4293"
     d="M 44.004917,102.68001 C 280.72901,153.06135 276.24281,153.06135 276.24281,153.06135 L 485.53313,63.341057 c -7.24666,0 -18.46174,25.880848 -18.28923,46.585503 0.17255,22.43007 12.59544,39.6839 18.28923,39.6839 -0.69016,0.5177 -209.29032,89.89281 -209.29032,89.89281 0,0 -194.451778,-42.44456 -232.06536,-50.20875 -41.0643574,-9.66217 -41.0643574,-75.57212 0,-86.61451 z m 0.17252,172.88389 C 280.72901,326.1178 276.0702,325.94528 276.0702,325.94528 l 209.29037,-89.72026 c -7.0741,0 -18.46173,26.05334 -18.28918,46.58553 0.17253,22.60266 12.76795,39.68397 18.28918,39.68397 -0.69025,0.51768 0,0.17282 -209.29037,90.06543 0,0 -194.451714,-42.44465 -231.892756,-50.38139 -41.2368959,-9.66231 -41.2368959,-75.39956 0,-86.61466 z"
     id="path4" />
  <path
     fill="#ffffff"
     stroke="#ffffff"
     stroke-linecap="round"
     stroke-linejoin="round"
     stroke-width="22.4293"
     d="M 43.832377,102.68001 C 248.80908,14.68508 255.19316,12.614611 255.19316,12.614611 c 231.54775,50.898988 231.54775,51.416598 231.54775,50.898988 0.51752,0 -209.29036,89.892821 -209.29036,89.892821 0,0 -1.72532,0 -233.618173,-50.72641 z"
     id="path6" />
  <path
     fill="#ffffff"
     d="m 232.07278,188.60436 c 0,-5.69387 4.65856,-10.00719 10.3523,-9.48959 5.86644,0.51758 10.69769,5.69373 10.69769,11.55994 0,5.69377 -4.83125,10.00744 -10.52505,9.48991 -5.86638,-0.6903 -10.3524,-5.69407 -10.3524,-11.56026 z m 0.17261,86.09692 c 0,-5.86631 4.65874,-10.00727 10.3524,-9.48959 5.86635,0.51754 10.52505,5.69367 10.52505,11.38745 0,5.86639 -4.6587,10.00728 -10.35253,9.4897 -5.86618,-0.51757 -10.52492,-5.69373 -10.52492,-11.38756 z m 0.17263,88.16743 c 0,-5.6937 4.65848,-10.0073 10.35232,-9.48963 5.86635,0.51766 10.52479,5.69371 10.52479,11.56001 0,5.6937 -4.65844,10.00725 -10.35232,9.31708 -5.86631,-0.51751 -10.35233,-5.52122 -10.35233,-11.38746 z"
     id="path8"
     style="stroke-width:1.72546" />
</svg>
